<svg version="1" xmlns="http://www.w3.org/2000/svg" width="666.667" height="666.667" viewBox="0 0 500.000000 500.000000"><path d="M69.9 96.3c-.8 1.8-.9 4.6-.3 9.4l.9 6.8 6.5.1c10.5.1 10 .5 10-9.2V95h-4.9c-2.7 0-6.2-.3-7.9-.6-2.7-.5-3.3-.3-4.3 1.9zM103.7 94.6c-1 1-.9 17.2.1 17.8.4.2 4.5.2 9-.1l8.2-.6V95h-6.2c-3.5 0-7.2-.3-8.3-.6-1.1-.3-2.4-.2-2.8.2zM138 95c-.4.3-.7 4.3-.6 9l.1 8.5 63 .2c34.7 0 65.4-.1 68.3-.4l5.2-.5-.1-8.4-.1-8.4-4.2-.1c-20.3-.3-131-.3-131.6.1zM188.7 137.7c-.4.3-.7 4.4-.7 9v8.3h102.2l6.1 3.6c6.9 4 19.5 14.3 28.1 22.9 5.4 5.4 8 10.1 16.6 29 1.2 2.7 3.8 8.4 5.8 12.5 1.9 4.1 6 13.1 9.2 20 3.2 6.9 6.9 15 8.4 18.1l2.6 5.6 7.8 1.2c4.2.7 13.6 2.1 20.7 3.2 7.2 1.1 18.2 2.9 24.5 3.9 17.2 2.8 22.7 3.3 23.4 2.2.7-1.1 1.8-8.8 2-13.7.1-2.9 0-3-5.9-3.7-3.3-.4-9.4-1.3-13.5-1.9-10.3-1.5-12-1.8-16-2.5-1.9-.4-4.4-.8-5.5-.9-5.6-.7-18.4-2.7-21.5-3.3-3.2-.6-3.8-1.4-7.8-9.7-2.4-5-5.2-10.8-6.2-13-1-2.2-3.8-8.4-6.4-13.8-2.5-5.4-4.6-10-4.6-10.2 0-.2-2.7-6.1-6-13.1-3.3-6.9-6-12.9-6-13.3 0-1.2-12-12.4-25-23.5-3.3-2.8-12.9-9.6-13.5-9.6-.3 0-2.2-1.1-4.3-2.5-8.1-5.3-9.6-5.5-63.8-5.5-27.5 0-50.4.3-50.7.7z"/><path d="M397.8 146c-10.6 1.8-23 11.7-28.4 22.5-2.6 5.3-2.9 7.1-2.9 15s.4 9.7 2.9 15c9.1 18.5 28.3 27.4 46.5 21.5 3.9-1.2 7.1-2.6 7.1-3.1s.6-.9 1.3-.9c2.7 0 12.1-10.5 15.1-17 2.8-5.8 3.1-7.5 3.1-15.6 0-8.2-.3-9.6-3.3-15.6-5.8-11.4-16.3-19.6-27.8-21.7-6.4-1.2-6.8-1.2-13.6-.1zM221.6 165.6c-1 2.6-.7 16.4.4 16.4 3.9 0 41.7 4.3 42.6 4.8 1.1.7 5.2 5.6 11.7 14.5l2.8 3.7-13.1 13.4c-29.9 30.5-31 31.9-34.2 44.4-2.5 9.5-2 19.4 1.7 32.9 3.5 13.1 11.6 28.2 19.6 36.5 1.9 1.9 6.5 6.7 10.3 10.6l6.9 7-3.4 2.1c-1.9 1.1-3.9 2.5-4.6 3-.7.6-3.3 2.3-6 3.7-2.6 1.5-8.8 5.3-13.8 8.5-22.7 14.7-26.4 17-31.7 20.1-3.2 1.8-5.8 3.7-5.8 4.1 0 1.3 7 12.5 8.7 13.8 1 .9 1.8.8 3.1-.5 1-.9 2.3-1.6 2.9-1.6.5 0 1.8-.9 2.8-2 1-1.1 2.2-2 2.7-2s2.1-.8 3.6-1.9c2.4-1.6 13.5-8.7 20.7-13.1 23.8-14.7 45-28.1 47.3-30 1-.9 1-1.4 0-2.4-14.2-14.3-35.1-36.9-37.9-41-10.1-14.6-14.2-32.3-10.2-44.6 1.8-5.7 4.1-8.2 37.3-42.3 8.5-8.7 15.6-16.5 15.8-17.3.2-.8-3-5.6-7-10.7-4-5-10-12.8-13.2-17.2-3.3-4.4-6.4-8.3-7-8.7-.5-.3-3.5-.9-6.5-1.2-3.1-.4-13.8-1.5-23.8-2.6-21.9-2.4-21.9-2.4-22.7-.4z"/><path d="M319.3 257.7c-22.1 20.9-34.3 32.8-34.3 33.6 0 .7 8.5 13.6 22.7 34.2 18.8 27.2 21.3 31.1 21.3 33.1 0 5.2.6 4.9-49 25.1-34.8 14.2-39.5 16.1-48 19.7-4.7 1.9-8.6 4-8.8 4.5-.4 1.1 2.9 10.6 4.9 14.2.9 1.8 1.2 1.8 4.7.3 3.8-1.6 30.6-12.5 73.2-29.9 12.8-5.2 25.1-10.6 27.1-12 10.7-7 15.4-23.3 10.1-34.5-.9-1.9-4.4-7.3-7.7-12-3.4-4.7-7.8-11-9.8-14-1.9-3-6.8-10.2-10.6-15.9l-7.1-10.5 2.2-2.5c1.3-1.3 3.9-3.8 5.8-5.5 1.9-1.7 4.7-4.4 6.2-6 1.5-1.7 2.9-2.8 3.1-2.5.2.2 1.4 2 2.7 3.9 1.3 1.9 2.7 3.7 3 4 .5.5 2.2 2.6 6.8 8.9.9 1.2 3.8 4.6 6.3 7.4l4.6 5h68.8l.3-8.3c.2-6-.1-8.6-1-9.2-.7-.4-14.5-.8-30.6-.7-26.5.1-29.5-.1-31.3-1.7-2.2-1.9-14.1-18.4-21.3-29.2-2.6-3.9-5.1-7.2-5.5-7.2-.3 0-4.3 3.5-8.8 7.7zM54.9 254.5c-.7 0-.4 16.3.3 17.2.7.9 15.4 1.2 58.7 1.2h57.8l-.1-8.9c-.1-5.3-.5-9-1.1-9-.7 0-114-.5-115.6-.5zM201.5 292.2c-4.4 3.2-9.8 7.1-12 8.6-2.2 1.5-4.2 3-4.5 3.3-.3.3-1.4 1.1-2.6 1.7-1.8 1-20.8 14.2-33.9 23.7-2.7 2-8.4 6-12.5 8.9-4.1 2.9-12.2 8.5-18 12.6-5.8 4-15.7 10.9-22 15.3-6.3 4.4-11.9 8.3-12.3 8.7-1.3 1.1 9.2 15.2 10.6 14.3 1.1-.6 14.2-9.7 23.6-16.4 2-1.4 6.1-4.3 9.2-6.5 3.1-2.1 14.2-10 24.7-17.4 10.5-7.4 22.7-16 27.1-19 16.7-11.5 40.6-28.3 41.4-29 .9-.8-8.1-14.2-9.8-14.6-.6-.1-4.6 2.5-9 5.8zM219.5 330.3c-1.1.7-6 3.4-11 6.2-4.9 2.7-9.8 5.4-10.7 6-.9.5-4.5 2.5-8 4.4-3.5 1.8-11.7 6.4-18.3 10.1-16.2 9.1-40.5 22.6-48.8 27-9.7 5.2-11.3 6.7-9.5 8.8.8.9 2.5 4.1 3.8 6.9 1.3 2.9 3 5.3 3.8 5.3.8 0 3.7-1.4 6.4-3 2.6-1.7 5.2-3 5.6-3 .4 0 3.3-1.6 6.6-3.5 3.2-2 8.8-5.2 12.5-7.2 37.1-20 80.1-44.2 80.1-45 0-.4-1.2-2.7-2.8-5.2-1.5-2.5-3.2-5.5-3.8-6.6-1.3-2.4-3.2-2.7-5.9-1.2z"/></svg>